{
  "title": "Australian Survivor - S03E02",
  "uid": 15620151,
  "size": 463609673,
  "categoryP": "video",
  "categoryS": "tv_shows",
  "magnet": "?xt=urn:btih:879e5e35dab40605e49402f1fa0419e595d65e9b&amp;dn=Australian+Survivor+-+S03E02&amp;tr=udp%3A%2F%2Ftracker.leechers-paradise.org%3A6969&amp;tr=udp%3A%2F%2Fzer0day.ch%3A1337&amp;tr=udp%3A%2F%2Fopen.demonii.com%3A1337&amp;tr=udp%3A%2F%2Ftracker.coppersurfer.tk%3A6969&amp;tr=udp%3A%2F%2Fexodus.desync.com%3A6969",
  "seeders": 66,
  "leechers": 8,
  "uploader": "Bullrout",
  "files": 1,
  "time": 1471872705,
  "description": "Australian Survivor - S03E02\r\n\r\nThe tribes compete in an Immunity Challenge to avoid tribal council where they will be forced to vote a team mate off the island. Who will be the second contestant to leave the island?\r\n\r\nComplete name                            : Australian Survivor - S03E02.mp4\r\nFormat                                   : MPEG-4\r\nFormat profile                           : Base Media / Version 2\r\nCodec ID                                 : mp42 (mp42/isom/avc1)\r\nFile size                                : 442 MiB\r\nDuration                                 : 55mn 18s\r\nOverall bit rate mode                    : Variable\r\nOverall bit rate                         : 1 118 Kbps\r\n\r\nID                                       : 2\r\nFormat                                   : AVC\r\nFormat/Info                              : Advanced Video Codec\r\nFormat profile                           :   \r\nFormat settings, CABAC                   : Yes\r\nFormat settings, ReFrames                : 3 frames\r\nCodec ID                                 : avc1\r\nCodec ID/Info                            : Advanced Video Coding\r\nDuration                                 : 55mn 18s\r\nBit rate mode                            : Variable\r\nBit rate                                 : 986 Kbps\r\nMaximum bit rate                         : 1 000 Kbps\r\nWidth                                    : 720 pixels\r\nHeight                                   : 404 pixels\r\nDisplay aspect ratio                     : 16:9\r\nOriginal display aspect ratio            : 16:9\r\nFrame rate mode                          : Constant\r\nFrame rate                               : 25.000 fps\r\nStandard                                 : PAL\r\nColor space                              : YUV\r\nChroma subsampling                       : 4:2:0\r\nBit depth                                : 8 bits\r\nScan type                                : Progressive\r\nBits/(Pixel*Frame)                       : 0.136\r\nStream size                              : 390 MiB (88%)\r\nWriting library                          : x264 core 112\r\nColor range                              : Limited\r\nColor primaries                          : BT.601 PAL\r\nTransfer characteristics                 : BT.470 System B, BT.470 System G\r\nMatrix coefficients                      : BT.601\r\n\r\nAudio\r\nID                                       : 1\r\nFormat                                   : AAC\r\nFormat/Info                              : Advanced Audio Codec\r\nFormat profile                           : LC\r\nCodec ID                                 : 40\r\nDuration                                 : 55mn 18s\r\nBit rate mode                            : Variable\r\nBit rate                                 : 128 Kbps\r\nMaximum bit rate                         : 576 Kbps\r\nChannel(s)                               : 2 channels\r\nChannel positions                        : Front: L R\r\nSampling rate                            : 48.0 KHz\r\nFrame rate                               : 46.875 fps (1024 spf)\r\nCompression mode                         : Lossy\r\nStream size                              : 50.7 MiB (11%)",
  "parsed": {
    "xt": "urn:btih:879e5e35dab40605e49402f1fa0419e595d65e9b",
    "dn": "Australian Survivor - S03E02",
    "tr": [
      "udp://exodus.desync.com:6969",
      "udp://open.demonii.com:1337",
      "udp://tracker.coppersurfer.tk:6969",
      "udp://tracker.leechers-paradise.org:6969",
      "udp://zer0day.ch:1337"
    ],
    "infoHash": "879e5e35dab40605e49402f1fa0419e595d65e9b",
    "infoHashBuffer": {
      "type": "Buffer",
      "data": [
        135,
        158,
        94,
        53,
        218,
        180,
        6,
        5,
        228,
        148,
        2,
        241,
        250,
        4,
        25,
        229,
        149,
        214,
        94,
        155
      ]
    },
    "name": "Australian Survivor - S03E02",
    "announce": [
      "udp://exodus.desync.com:6969",
      "udp://open.demonii.com:1337",
      "udp://tracker.coppersurfer.tk:6969",
      "udp://tracker.leechers-paradise.org:6969",
      "udp://zer0day.ch:1337"
    ],
    "urlList": []
  },
  "previous": 74,
  "peers": 47,
  "last_updated": "2016-12-25T06:49:31.073Z"
}